<svg version="1" xmlns="http://www.w3.org/2000/svg" width="2666.667" height="2666.667" viewBox="0 0 2000.000000 2000.000000"><path d="M0 1000v1000h2000V0H0v1000zm651.5-802c46.2 3.4 83.3 10 109.1 19.5 12.4 4.5 35.5 15.8 45.4 22.2 48.8 31.2 82.1 76.5 103.4 140.7 2.5 7.6 4.6 14.5 4.6 15.2 0 .8-1 1.6-2.2 1.9-2.9.6-203.5 36.3-206.6 36.7-2.1.3-2.7-.5-4.7-5.7-13.3-35.2-39.4-60-74.1-70-15.5-4.5-26.3-5.9-45.9-5.8-18.6 0-28.3 1-42 4.4-36.8 9.2-67.3 31.8-86.9 64.6-18.8 31.5-28.6 79-28.6 138.7 0 61.6 9.3 108.5 28.3 142.1 15.2 26.8 43.1 49.8 73.2 60.2 21 7.2 40.5 9.8 68.7 9 44.2-1.1 77.9-11.7 128.1-40l10.7-6V660l-73.2-.2-73.3-.3v-147l169.3-.3L924 512v302.5l-8.3 5.5c-58.2 38.5-112.2 66.7-157.7 82.3-34 11.7-74.7 19.5-125 23.9-22.7 2-95.2 1.7-116-.5-88.6-9.5-145.4-31.1-197.5-75.2-42.9-36.4-75.9-87.7-95.8-149-28.5-87.8-27.5-201.3 2.7-286.6 25.3-71.5 69.1-127.3 129.6-165.2 52.4-32.9 103-47.1 187.5-52.7 16.2-1.1 89.2-.4 108 1zm827.3.5c54.3 5.4 97.6 16.9 137.7 36.4 94.2 45.7 152.8 129.9 170 244.1 3.1 20.5 4.5 38.8 5.2 65.5 1.6 70.3-7.8 133.6-27.2 184-32.6 84.4-99.2 148.2-185.5 177.7-47 16-96.8 22.7-159.5 21.5-46.7-1-78.4-4.6-115.5-13.3-67.5-15.9-123.2-49.5-164.1-98.9-56.1-67.8-80.9-145.2-81-252.5 0-56.6 5.8-98.1 19.9-143 27.8-88.3 88.6-156 172.2-192 43.1-18.5 81.4-26.8 144.5-31.4 11.7-.9 69 .4 83.3 1.9zm-366.3 708.1c2.7 2.5 2.8 2.7 2.2 11.2-.3 4.8-1.4 12.5-2.5 17.2-1.1 4.7-3.2 14.3-4.7 21.5-1.4 7.1-3.3 15.9-4 19.5-.8 3.6-2.7 12.8-4.4 20.5-1.6 7.7-4.7 22.5-7 33-2.2 10.4-5.7 26.6-7.6 36-7.7 36.9-8.5 39.2-13 41.3-6.7 3.1-7.2 2.8-40.5-21.9-13-9.6-25-18.1-26.8-18.8-4.8-2-7.5-.4-22 13.3-15.5 14.6-19.7 16.9-23.6 13-.9-.8-3.2-6.8-5.2-13.2-1.9-6.4-4.8-15.8-6.4-20.7-1.6-5-4.5-14.2-6.5-20.6-2-6.4-4.5-12.6-5.6-13.8-2.6-2.8-2.4-2.7-31.4-11.7-27-8.4-30.3-9.8-31.1-13-1.5-6.1-.9-6.4 65.6-31.9 9.1-3.5 23-8.9 31-12 8-3.1 23.1-8.9 33.5-12.9 35.8-13.8 53-20.4 76-29.4 25.7-10.1 29.5-10.8 34-6.6zm362.5 174.9c53.9 5.4 96.4 16.6 136.5 35.9 94.9 45.8 153.7 129.9 171 244.6 8 53 7 123.5-2.6 178-12.4 71.3-41.3 130.1-85.7 174.7-67.9 68.2-156.2 98.5-279.2 96-63.6-1.4-110.6-9.1-156-25.7-48.7-17.8-90.8-47.4-123.1-86.5-55.9-67.5-80.9-145.3-81-251.5 0-57.8 5.6-98.2 20.1-144.5 32.8-104.7 113.1-180.3 221.4-208.5 30.6-8 53.1-11.4 95.1-14.4 11.8-.9 69 .4 83.5 1.9zM872 1179v88H649.5v531.5l-109.7.3-109.8.2v-532l-111.2-.2-111.3-.3-.3-87.8-.2-87.7h665v88z"/><path d="M1415 362.7c-38 1.9-69.5 16.4-94.4 43.4-20.9 22.6-34.4 58.3-40.3 106.9-2.2 18.3-2.5 76.9-.5 95.5 5.7 52.2 18.2 86.7 40.4 111 27.6 30.4 60.1 43.8 105.8 43.8 41.2 0 72.8-11.3 97.9-34.9 19.7-18.5 31.8-42 39.6-76.9 6.3-28 8.8-55.4 8.8-95 0-42.3-3.4-69.5-12.4-97.1-8.9-27.6-21.9-47.9-40.9-64.2-23-19.7-48.9-29.7-82.9-32.2-6.9-.5-13.3-.9-14.1-.8-.8.1-4 .3-7 .5zM1411.5 1245.6c-9.7.7-23.1 2.6-30.6 4.5-30 7.5-58.9 28-75.7 53.7-22.2 34.1-32.4 84.4-30.9 153.1.7 35.4 3.5 58.1 9.7 81.7 7.4 27.7 17.4 47.7 32.2 63.9 27.6 30.4 60.1 43.8 105.8 43.8 41.4 0 73-11.3 98.2-35.2 13.9-13.1 22.1-25.4 29.7-44.7 10.5-26.6 16-58.4 18.2-105.1 2.8-58.5-4.5-107.3-21.1-141.1-19.6-40.2-55.1-65.9-100-72.5-11.1-1.7-27.1-2.6-35.5-2.1z"/></svg>