<?xml version="1.0" standalone="no"?>
<!DOCTYPE svg PUBLIC "-//W3C//DTD SVG 20010904//EN"
 "http://www.w3.org/TR/2001/REC-SVG-20010904/DTD/svg10.dtd">
<svg version="1.0" xmlns="http://www.w3.org/2000/svg"
 width="1000.000000pt" height="1000.000000pt" viewBox="0 0 1000.000000 1000.000000"
 preserveAspectRatio="xMidYMid meet">
<metadata>
Created by potrace 1.11, written by Peter Selinger 2001-2013
</metadata>
<g transform="translate(0.000000,1000.000000) scale(0.100000,-0.100000)"
fill="#000000" stroke="none">
<path d="M4805 9994 c-1177 -58 -2216 -471 -3090 -1228 -153 -132 -423 -407
-546 -556 -503 -605 -847 -1288 -1028 -2040 -243 -1009 -165 -2071 221 -3035
155 -385 387 -799 636 -1130 270 -359 644 -733 1007 -1007 915 -689 2084
-1048 3222 -990 476 25 877 97 1299 233 628 203 1163 498 1684 928 146 120
497 471 621 621 963 1160 1350 2635 1083 4120 -142 784 -498 1570 -996 2192
-864 1080 -2086 1743 -3448 1872 -157 15 -536 26 -665 20z m2528 -3018 c45
-18 96 -72 120 -126 39 -88 32 -159 -68 -627 -49 -233 -92 -423 -95 -423 -3 0
-27 44 -54 98 -133 268 -317 535 -549 795 -38 43 -68 80 -65 82 5 5 487 192
528 205 41 13 148 11 183 -4z m-1087 -508 c210 -359 372 -739 453 -1063 117
-470 88 -874 -86 -1216 -52 -103 -175 -273 -193 -267 -5 2 -377 368 -827 814
-450 446 -902 893 -1006 994 -103 101 -184 187 -180 190 5 4 359 143 788 308
429 165 821 316 870 335 50 20 93 36 96 36 4 1 42 -59 85 -131z m-1910 -1395
c214 -219 455 -463 535 -543 80 -80 331 -334 558 -564 410 -417 412 -420 387
-433 -48 -25 -233 -63 -386 -79 -131 -14 -176 -14 -295 -4 -77 6 -174 18 -215
27 -104 21 -325 95 -428 143 -114 54 -287 170 -391 263 l-84 75 -74 -84 c-76
-85 -86 -93 -99 -73 -11 18 -107 59 -139 59 -16 0 -43 -7 -58 -15 -21 -11 -29
-11 -33 -2 -2 7 -36 115 -74 241 -38 126 -74 233 -81 236 -6 4 -282 92 -613
195 -330 103 -624 196 -652 206 -141 53 -190 146 -124 238 60 82 110 106 633
306 l178 69 230 -230 229 -229 298 298 c163 163 300 297 303 297 3 0 181 -179
395 -397z m-408 -1767 c98 -91 273 -223 381 -288 62 -37 117 -69 124 -71 17
-7 -170 -182 -223 -209 -37 -19 -61 -23 -132 -23 -122 0 -121 -2 -202 265 -36
118 -66 222 -67 230 -3 18 53 139 64 140 4 0 29 -20 55 -44z m2599 -457 c59
-60 110 -115 111 -120 7 -18 -37 -144 -66 -190 -57 -89 -138 -122 -244 -100
-87 18 -130 43 -322 185 l-168 125 43 11 c189 52 378 122 474 177 22 12 45 23
52 23 6 0 60 -50 120 -111z"/>
</g>
</svg>
